<svg xmlns="http://www.w3.org/2000/svg" viewBox="0 0 64 64" width="64" height="64">
  <defs>
    <linearGradient id="g" x1="0%" y1="0%" x2="100%" y2="100%">
      <stop offset="0%" stop-color="#006EF4"/>
      <stop offset="100%" stop-color="#022E3D"/>
    </linearGradient>
  </defs>
  <rect width="64" height="64" rx="12" fill="url(#g)"/>
  <path d="M32 14c-5.5 0-10 4.5-10 10v6h-2c-1.1 0-2 .9-2 2v16c0 1.1.9 2 2 2h24c1.1 0 2-.9 2-2V32c0-1.1-.9-2-2-2h-2v-6c0-5.5-4.5-10-10-10zm6 16H26v-6c0-3.3 2.7-6 6-6s6 2.7 6 6v6zm-6 6c1.7 0 3 1.3 3 3 0 1.1-.6 2.1-1.5 2.6V44c0 .8-.7 1.5-1.5 1.5s-1.5-.7-1.5-1.5v-2.4c-.9-.5-1.5-1.5-1.5-2.6 0-1.7 1.3-3 3-3z" fill="#fff"/>
</svg>
