<?xml version="1.0" encoding="UTF-8" standalone="no"?>
<svg
   id="Layer_2"
   viewBox="0 0 45.594 45.593803"
   version="1.1"
   sodipodi:docname="pg_logo_no_text.svg"
   width="45.594002"
   height="45.593803"
   xmlns:inkscape="http://www.inkscape.org/namespaces/inkscape"
   xmlns:sodipodi="http://sodipodi.sourceforge.net/DTD/sodipodi-0.dtd"
   xmlns="http://www.w3.org/2000/svg"
   xmlns:svg="http://www.w3.org/2000/svg">
  <sodipodi:namedview
     id="namedview349"
     pagecolor="#ffffff"
     bordercolor="#000000"
     borderopacity="0.25"
     inkscape:showpageshadow="2"
     inkscape:pageopacity="0.0"
     inkscape:pagecheckerboard="0"
     inkscape:deskcolor="#d1d1d1"
     showgrid="false"
     inkscape:zoom="22.536757"
     inkscape:cx="19.590219"
     inkscape:cy="16.506368"
     inkscape:window-width="3836"
     inkscape:window-height="2118"
     inkscape:window-x="0"
     inkscape:window-y="38"
     inkscape:window-maximized="1"
     inkscape:current-layer="Layer_2" />
  <defs
     id="defs315">
    <style
       id="style313">.cls-1{fill:#fff;}.cls-2{fill:#0071eb;}.cls-3{fill:#022e3d;}.cls-4{fill:#181817;}</style>
  </defs>
  <g
     id="Laag_1"
     transform="matrix(0.99999248,0,0,1.0000043,3.0021614,0.00380507)">
    <g
       id="g321">
      <path
         class="cls-2"
         d="m 35.56,24.01 c 0.06,-0.16 0.1,-0.34 0.16,-0.51 2.1,-7.25 2.77,-13.52 2.77,-13.52 v 0 C 34.39,8.04 23.44,2.42 19.54,0.57 14.49,3.19 5.7,7.35 0.58,9.98 v 0 c 0,0 3.37,31.77 18.95,35.01 v 0 C 27.19,43.4 31.88,34.93 34.7,26.72"
         id="path317" />
      <path
         class="cls-4"
         d="m 19.53,45.57 c -0.06,0 -0.11,0 -0.16,-0.02 C 3.59,42.22 0.14,11.36 0,10.05 -0.02,9.81 0.1,9.58 0.31,9.47 2.82,8.18 6.26,6.5 9.59,4.87 c 3.49,-1.71 7.1,-3.47 9.67,-4.81 0.16,-0.08 0.35,-0.09 0.52,0 1.92,0.91 5.46,2.69 9.21,4.57 3.77,1.89 7.66,3.85 9.74,4.83 0.27,0.08 0.37,0.31 0.34,0.59 0,0.06 -0.69,6.4 -2.79,13.62 l -0.07,0.24 c -0.03,0.11 -0.06,0.21 -0.1,0.31 -0.11,0.3 -0.44,0.46 -0.74,0.35 -0.3,-0.11 -0.46,-0.44 -0.35,-0.74 0.03,-0.08 0.06,-0.17 0.08,-0.25 l 0.08,-0.25 C 36.94,17.27 37.69,11.83 37.87,10.34 35.62,9.27 31.99,7.45 28.48,5.68 24.9,3.88 21.51,2.18 19.56,1.24 16.99,2.56 13.49,4.27 10.1,5.93 6.94,7.48 3.68,9.07 1.22,10.33 c 0.47,3.75 4.33,31.03 18.33,34.08 6.09,-1.33 11.01,-7.34 14.61,-17.86 0.1,-0.3 0.43,-0.47 0.74,-0.36 0.3,0.1 0.47,0.43 0.36,0.74 -3.77,11.01 -9.02,17.28 -15.6,18.65 -0.04,0 -0.08,0.01 -0.12,0.01 z"
         id="path319" />
    </g>
    <path
       class="cls-1"
       d="m 7.24,32.5 21.11,2.05 c 0,0 -0.85,5.32 -1.54,5.98 -0.69,0.66 -5.39,4.39 -7.32,4.22 C 17.56,44.58 8.4,39.06 7.24,32.5 Z"
       id="path323" />
    <path
       class="cls-4"
       d="m 19.53,45.57 c -0.06,0 -0.11,0 -0.16,-0.02 C 3.59,42.22 0.14,11.36 0,10.05 -0.02,9.81 0.1,9.58 0.31,9.47 2.82,8.18 6.26,6.5 9.59,4.87 c 3.49,-1.71 7.1,-3.47 9.67,-4.81 0.16,-0.08 0.35,-0.09 0.52,0 1.92,0.91 5.46,2.69 9.21,4.57 3.77,1.89 7.66,3.85 9.74,4.83 0.27,0.08 0.37,0.31 0.34,0.59 0,0.06 -0.69,6.4 -2.79,13.62 l -0.07,0.24 c -0.03,0.11 -0.06,0.21 -0.1,0.31 -0.11,0.3 -0.44,0.46 -0.74,0.35 -0.3,-0.11 -0.46,-0.44 -0.35,-0.74 0.03,-0.08 0.06,-0.17 0.08,-0.25 l 0.08,-0.25 C 36.94,17.27 37.69,11.83 37.87,10.34 35.62,9.27 31.99,7.45 28.48,5.68 24.9,3.88 21.51,2.18 19.56,1.24 16.99,2.56 13.49,4.27 10.1,5.93 6.94,7.48 3.68,9.07 1.22,10.33 c 0.47,3.75 4.33,31.03 18.33,34.08 6.09,-1.33 11.01,-7.34 14.61,-17.86 0.1,-0.3 0.43,-0.47 0.74,-0.36 0.3,0.1 0.47,0.43 0.36,0.74 -3.77,11.01 -9.02,17.28 -15.6,18.65 -0.04,0 -0.08,0.01 -0.12,0.01 z"
       id="path325" />
    <g
       id="g331">
      <path
         class="cls-1"
         d="m 28.59,34.82 0.21,-1.63 0.59,-4.64 0.91,-7.19 c 0.06,-0.44 0.08,-0.87 0.08,-1.3 0,-5.13 -3.82,-9.6 -9.05,-10.25 C 15.67,9.09 10.5,13.11 9.78,18.77 L 8.7,27.28 8.72,27.12 c 0,0 -0.39,3.18 -1.47,6.17"
         id="path327" />
      <path
         class="cls-3"
         d="m 29.17,34.9 -1.15,-0.15 1.7,-13.46 c 0.05,-0.4 0.08,-0.8 0.08,-1.23 0,-4.91 -3.67,-9.07 -8.54,-9.67 -5.33,-0.68 -10.22,3.11 -10.9,8.46 L 9.3,27.19 v 0 c -0.02,0.13 -0.41,3.28 -1.5,6.3 L 6.71,33.1 c 0.91,-2.53 1.33,-5.22 1.42,-5.89 v 0 c 0,0 1.08,-8.51 1.08,-8.51 0.76,-5.98 6.23,-10.22 12.2,-9.46 5.45,0.68 9.56,5.33 9.56,10.83 0,0.48 -0.03,0.93 -0.09,1.38 l -1.7,13.46 z"
         id="path329" />
    </g>
    <path
       class="cls-3"
       d="m 23.09,20.35 c 0.5,-1.36 2.5,-1.28 2.95,0.09 0.13,0.39 0.2,0.82 0.16,1.27 -0.04,0.5 -0.21,0.96 -0.43,1.36 -0.75,1.37 -2.83,0.98 -2.97,-0.58 -0.02,-0.24 -0.02,-0.5 0,-0.79 0.04,-0.51 0.15,-0.96 0.29,-1.35 z"
       id="path333" />
    <path
       class="cls-3"
       d="m 25.49,42.61 c -0.14,0 -0.28,-0.05 -0.39,-0.15 -0.24,-0.22 -0.25,-0.58 -0.04,-0.82 2.5,-2.72 3.03,-7.45 3.03,-7.5 0.03,-0.32 0.32,-0.55 0.64,-0.52 0.32,0.03 0.55,0.32 0.52,0.64 -0.02,0.21 -0.57,5.15 -3.33,8.16 -0.11,0.12 -0.27,0.19 -0.43,0.19 z"
       id="path335" />
    <path
       class="cls-3"
       d="m 21.5,18.78 c -0.12,0 -0.24,-0.04 -0.35,-0.11 -0.26,-0.19 -0.31,-0.55 -0.12,-0.81 0.05,-0.06 1.14,-1.52 2.88,-1.77 1.03,-0.15 2.03,0.15 3.01,0.88 0.26,0.19 0.31,0.56 0.11,0.81 -0.19,0.26 -0.55,0.31 -0.81,0.11 -0.99,-0.75 -1.99,-0.88 -2.97,-0.39 -0.78,0.39 -1.28,1.04 -1.28,1.05 -0.11,0.15 -0.29,0.23 -0.47,0.23 z"
       id="path337" />
    <path
       class="cls-3"
       d="m 19.53,44.36 c -0.06,0 -0.11,0 -0.16,-0.02 C 4.52,41.18 1.27,12 1.14,10.76 1.12,10.52 1.24,10.29 1.45,10.18 3.81,8.96 7.05,7.37 10.18,5.83 13.46,4.22 16.84,2.55 19.26,1.3 c 0.16,-0.08 0.35,-0.09 0.52,0 1.81,0.86 5.13,2.54 8.66,4.32 3.54,1.79 7.2,3.63 9.15,4.56 0.26,0.09 0.36,0.32 0.34,0.59 0,0.06 -0.65,6.05 -2.62,12.87 l -0.07,0.22 c -0.03,0.1 -0.06,0.2 -0.09,0.29 -0.11,0.3 -0.44,0.47 -0.74,0.35 -0.3,-0.11 -0.46,-0.44 -0.35,-0.75 0.03,-0.08 0.05,-0.16 0.08,-0.24 l 0.07,-0.23 c 1.64,-5.69 2.35,-10.8 2.53,-12.24 -2.1,-1.01 -5.5,-2.73 -8.8,-4.39 C 24.59,4.96 21.41,3.35 19.57,2.46 17.16,3.71 13.88,5.32 10.7,6.88 7.74,8.34 4.68,9.84 2.37,11.03 c 0.45,3.63 4.09,29.27 17.19,32.15 5.71,-1.26 10.32,-6.93 13.7,-16.86 0.1,-0.3 0.43,-0.47 0.74,-0.36 0.3,0.1 0.47,0.44 0.36,0.74 -3.55,10.41 -8.49,16.35 -14.69,17.65 -0.04,0 -0.08,0.01 -0.12,0.01 z"
       id="path339" />
    <path
       class="cls-1"
       d="m 19.53,45.57 c -0.06,0 -0.11,0 -0.16,-0.02 C 3.59,42.22 0.14,11.36 0,10.05 -0.02,9.81 0.1,9.58 0.31,9.47 2.82,8.18 6.26,6.5 9.59,4.87 c 3.49,-1.71 7.1,-3.47 9.67,-4.81 0.16,-0.08 0.35,-0.09 0.52,0 1.92,0.91 5.46,2.69 9.21,4.57 3.77,1.89 7.66,3.85 9.74,4.83 0.27,0.08 0.37,0.31 0.34,0.59 0,0.06 -0.69,6.4 -2.79,13.62 l -0.07,0.24 c -0.03,0.11 -0.06,0.21 -0.1,0.31 -0.11,0.3 -0.44,0.46 -0.74,0.35 -0.3,-0.11 -0.46,-0.44 -0.35,-0.74 0.03,-0.08 0.06,-0.17 0.08,-0.25 l 0.08,-0.25 C 36.94,17.27 37.69,11.83 37.87,10.34 35.62,9.27 31.99,7.45 28.48,5.68 24.9,3.88 21.51,2.18 19.56,1.24 16.99,2.56 13.49,4.27 10.1,5.93 6.94,7.48 3.68,9.07 1.22,10.33 c 0.47,3.75 4.33,31.03 18.33,34.08 6.09,-1.33 11.01,-7.34 14.61,-17.86 0.1,-0.3 0.43,-0.47 0.74,-0.36 0.3,0.1 0.47,0.43 0.36,0.74 -3.77,11.01 -9.02,17.28 -15.6,18.65 -0.04,0 -0.08,0.01 -0.12,0.01 z"
       id="path341" />
    <polygon
       class="cls-1"
       points="37.17,25.72 30.02,27.89 30.73,22.51 36.29,23.75 "
       id="polygon343" />
    <path
       class="cls-3"
       d="m 29.8,29.13 c -0.24,0 -0.46,-0.14 -0.54,-0.38 -0.11,-0.3 0.04,-0.64 0.34,-0.75 l 7.09,-2.64 c 0.05,-0.02 0.08,-0.06 0.08,-0.12 0,-0.06 -0.02,-0.1 -0.08,-0.12 l -6.53,-2.81 c -0.3,-0.13 -0.43,-0.47 -0.3,-0.76 0.13,-0.3 0.47,-0.43 0.76,-0.3 l 6.53,2.81 c 0.49,0.21 0.79,0.69 0.78,1.22 -0.01,0.53 -0.34,0.99 -0.84,1.18 L 30,29.1 c -0.07,0.02 -0.14,0.04 -0.2,0.04 z"
       id="path345" />
  </g>
</svg>
