<?xml version="1.0" encoding="UTF-8"?>
<svg xmlns="http://www.w3.org/2000/svg" xmlns:xlink="http://www.w3.org/1999/xlink" width="24px" height="24px" viewBox="0 0 24 24" version="1.1">
<g id="surface1">
<path style=" stroke:none;fill-rule:nonzero;fill:rgb(100%,100%,100%);fill-opacity:1;" d="M 14 21 C 13.800781 21 13.625 20.925781 13.476562 20.773438 C 13.324219 20.625 13.25 20.449219 13.25 20.25 C 13.25 20.035156 13.324219 19.855469 13.476562 19.710938 C 13.625 19.570312 13.800781 19.5 14 19.5 C 14.984375 19.5 15.8125 19.300781 16.488281 18.898438 C 17.164062 18.5 17.5 18.035156 17.5 17.5 C 17.5 17.117188 17.253906 16.742188 16.761719 16.375 C 16.269531 16.007812 15.609375 15.726562 14.773438 15.523438 L 15.949219 14.351562 C 17 14.667969 17.769531 15.105469 18.261719 15.664062 C 18.753906 16.222656 19 16.832031 19 17.5 C 19 18.617188 18.492188 19.480469 17.476562 20.085938 C 16.457031 20.695312 15.300781 21 14 21 Z M 6 13.648438 C 4.933594 13.417969 4.167969 13.050781 3.699219 12.550781 C 3.234375 12.050781 3 11.535156 3 11 C 3 10.417969 3.214844 9.890625 3.648438 9.425781 C 4.082031 8.957031 5.082031 8.441406 6.648438 7.875 C 7.75 7.476562 8.457031 7.148438 8.773438 6.898438 C 9.089844 6.648438 9.25 6.359375 9.25 6.023438 C 9.25 5.609375 9.066406 5.25 8.699219 4.949219 C 8.332031 4.648438 7.765625 4.5 7 4.5 C 6.550781 4.5 6.167969 4.558594 5.851562 4.675781 C 5.535156 4.792969 5.25 4.976562 5 5.226562 C 4.867188 5.359375 4.695312 5.4375 4.488281 5.460938 C 4.277344 5.488281 4.089844 5.433594 3.925781 5.300781 C 3.742188 5.167969 3.644531 5 3.636719 4.800781 C 3.628906 4.601562 3.691406 4.425781 3.824219 4.273438 C 4.109375 3.910156 4.535156 3.605469 5.101562 3.363281 C 5.667969 3.121094 6.300781 3 7 3 C 8.132812 3 9.042969 3.269531 9.726562 3.8125 C 10.410156 4.355469 10.75 5.089844 10.75 6.023438 C 10.75 6.707031 10.511719 7.289062 10.039062 7.761719 C 9.5625 8.238281 8.632812 8.734375 7.25 9.25 C 6.132812 9.667969 5.394531 9.996094 5.039062 10.238281 C 4.679688 10.480469 4.5 10.734375 4.5 11 C 4.5 11.265625 4.726562 11.519531 5.175781 11.761719 C 5.625 12.003906 6.300781 12.234375 7.199219 12.449219 Z M 18.398438 9.800781 L 15.199219 6.601562 L 16.324219 5.476562 C 16.625 5.175781 16.957031 5.023438 17.324219 5.023438 C 17.691406 5.023438 18.023438 5.175781 18.324219 5.476562 L 19.523438 6.675781 C 19.824219 6.976562 19.976562 7.308594 19.976562 7.675781 C 19.976562 8.042969 19.824219 8.375 19.523438 8.675781 Z M 5.5 19.5 L 6.550781 19.5 L 15.175781 10.875 L 14.125 9.824219 L 5.5 18.449219 Z M 4 21 L 4 17.800781 L 14.125 7.675781 L 17.324219 10.875 L 7.199219 21 Z M 14.125 9.824219 L 15.175781 10.875 Z M 14.125 9.824219 "/>
</g>
</svg>
